HIERARCHY
ROOT joint_Root
{
	OFFSET 0.0 0.0 0.0
	CHANNELS 6 Xposition Yposition Zposition Zrotation Xrotation Yrotation 
	JOINT Hips
	{
		OFFSET -0.726466 93.3139 -2.00062
		CHANNELS 6 Xposition Yposition Zposition Zrotation Xrotation Yrotation 
		JOINT Spine
		{
			OFFSET 15.7357 0.0 0.0
			CHANNELS 6 Xposition Yposition Zposition Zrotation Xrotation Yrotation 
			JOINT Chest
			{
				OFFSET 8.98455 -0.406207 0.0
				CHANNELS 6 Xposition Yposition Zposition Zrotation Xrotation Yrotation 
				JOINT Neck
				{
					OFFSET 16.3773 0.0 0.0
					CHANNELS 6 Xposition Yposition Zposition Zrotation Xrotation Yrotation 
					JOINT Head
					{
						OFFSET 6.45672 0.0 0.0
						CHANNELS 6 Xposition Yposition Zposition Zrotation Xrotation Yrotation 
						End Site
						{
							OFFSET 0.0 0.0 0.0
						}
					}
				}
				JOINT Shoulder_L
				{
					OFFSET 12.9942 -0.242716 4.98039
					CHANNELS 6 Xposition Yposition Zposition Zrotation Xrotation Yrotation 
					JOINT UpperArm_L
					{
						OFFSET 5.34809 0.0 0.0
						CHANNELS 6 Xposition Yposition Zposition Zrotation Xrotation Yrotation 
						JOINT LowerArm_L
						{
							OFFSET 24.3286 1.87007e-05 0.0
							CHANNELS 6 Xposition Yposition Zposition Zrotation Xrotation Yrotation 
							JOINT Hand_L
							{
								OFFSET 22.2916 0.0 0.0
								CHANNELS 6 Xposition Yposition Zposition Zrotation Xrotation Yrotation 
								End Site
								{
									OFFSET 0.0 0.0 0.0
								}
							}
						}
					}
				}
				JOINT Shoulder_R
				{
					OFFSET 12.9945 -0.242716 -4.98039
					CHANNELS 6 Xposition Yposition Zposition Zrotation Xrotation Yrotation 
					JOINT UpperArm_R
					{
						OFFSET -5.34813 0.0 0.0
						CHANNELS 6 Xposition Yposition Zposition Zrotation Xrotation Yrotation 
						JOINT LowerArm_R
						{
							OFFSET -24.3289 0.000322201 0.0
							CHANNELS 6 Xposition Yposition Zposition Zrotation Xrotation Yrotation 
							JOINT Hand_R
							{
								OFFSET -22.2915 -0.000108084 0.0
								CHANNELS 6 Xposition Yposition Zposition Zrotation Xrotation Yrotation 
								End Site
								{
									OFFSET 0.0 0.0 0.0
								}
							}
						}
					}
				}
			}
		}
		JOINT UpperLeg_L
		{
			OFFSET -2.19248 -6.46944 0.0
			CHANNELS 6 Xposition Yposition Zposition Zrotation Xrotation Yrotation 
			JOINT LowerLeg_L
			{
				OFFSET 39.0811 0.0 -1.23785e-05
				CHANNELS 6 Xposition Yposition Zposition Zrotation Xrotation Yrotation 
				JOINT Foot_L
				{
					OFFSET 40.9854 0.0 -1.26872e-05
					CHANNELS 6 Xposition Yposition Zposition Zrotation Xrotation Yrotation 
					JOINT Toes_L
					{
						OFFSET 11.7543 0.0 0.0
						CHANNELS 6 Xposition Yposition Zposition Zrotation Xrotation Yrotation 
						End Site
						{
							OFFSET 0.0 0.0 0.0
						}
					}
				}
			}
		}
		JOINT UpperLeg_R
		{
			OFFSET -2.19251 6.46944 0.0
			CHANNELS 6 Xposition Yposition Zposition Zrotation Xrotation Yrotation 
			JOINT LowerLeg_R
			{
				OFFSET -39.0811 -0.00228153 -0.0401928
				CHANNELS 6 Xposition Yposition Zposition Zrotation Xrotation Yrotation 
				JOINT Foot_R
				{
					OFFSET -40.9854 0.0 0.0
					CHANNELS 6 Xposition Yposition Zposition Zrotation Xrotation Yrotation 
					JOINT Toes_R
					{
						OFFSET -11.7543 0.0 0.0
						CHANNELS 6 Xposition Yposition Zposition Zrotation Xrotation Yrotation 
						End Site
						{
							OFFSET 0.0 0.0 0.0
						}
					}
				}
			}
		}
	}
}
MOTION
Frames:	4
Frame Time:	0.0333333
0.000000 0.000000 0.000000 0.000000 0.000000 -0.000000 -1.657300 91.299800 -466.942000 89.857900 -4.697670 -12.215700 15.735700 0.000005 -0.000001 110.058000 81.483800 -112.022000 8.984550 -0.406207 -0.000000 8.368340 5.804620 -4.352420 16.377300 -0.000001 -0.000001 -3.122530 -3.164370 -0.293773 6.456720 -0.000001 -0.000000 -5.773830 -10.253700 3.860580 12.994200 -0.242716 4.980390 -86.084400 -10.122800 -68.722400 5.348090 -0.000007 -0.000001 -78.964500 33.790900 24.274500 24.328600 0.000019 0.000005 2.081260 0.326192 -81.095800 22.291600 -0.000001 0.000005 2.074540 5.636900 -13.871800 12.994500 -0.242716 -4.980390 90.732000 -2.601440 -74.278700 -5.348130 -0.000001 -0.000004 -58.673500 32.469600 -37.953300 -24.328900 0.000322 -0.000009 -10.419400 2.930770 -105.537000 -22.291500 -0.000108 -0.000004 15.141100 5.509840 -6.935100 -2.192480 -6.469440 -0.000000 174.277000 -7.651260 -37.768700 39.081100 -0.000007 -0.000012 -0.021722 0.030106 35.812600 40.985400 -0.000006 -0.000013 -1.840110 -4.130400 -70.229800 11.754300 -0.000000 0.000003 -0.006037 -0.071182 -19.473800 -2.192510 6.469440 -0.000001 177.640000 4.395510 -175.655000 -39.081100 -0.002282 -0.040193 0.027242 -0.035285 34.166500 -40.985400 0.000008 0.000006 -0.455101 5.420630 -29.749200 -11.754300 -0.000006 -0.000006 -0.029156 -0.213567 -25.320400
0.000000 0.000000 0.000000 0.000000 0.000000 -0.000000 -1.637930 89.388600 -460.040000 89.513700 -3.442650 -11.247900 15.735700 0.000005 -0.000001 104.967000 81.657700 -106.961000 8.984550 -0.406207 -0.000000 8.447970 4.277180 -4.300240 16.377300 -0.000001 -0.000001 -2.810510 -2.953160 -0.100866 6.456720 -0.000001 -0.000000 -6.153570 -9.303150 4.388980 12.994200 -0.242716 4.980390 -86.671600 -8.469630 -68.452900 5.348090 -0.000007 -0.000001 -77.132100 30.412600 19.210200 24.328600 0.000019 0.000005 0.728539 0.079732 -83.768200 22.291600 -0.000001 0.000005 2.486610 5.623780 -12.883300 12.994500 -0.242716 -4.980390 90.385900 -1.367820 -74.243100 -5.348130 -0.000001 -0.000004 -59.442700 36.238900 -31.481400 -24.328900 0.000322 -0.000009 -8.629750 1.094060 -97.165400 -22.291500 -0.000108 -0.000004 15.157000 5.493580 -6.277560 -2.192480 -6.469440 -0.000000 172.978000 -7.794130 -35.524200 39.081100 -0.000007 -0.000012 0.015466 -0.020580 36.922300 40.985400 -0.000006 -0.000013 5.590960 -4.871790 -65.723600 11.754300 -0.000000 0.000003 -0.004415 -0.055698 -18.842700 -2.192510 6.469440 -0.000001 179.127000 3.191600 -179.005000 -39.081100 -0.002282 -0.040193 -0.027368 0.027508 48.067000 -40.985400 0.000008 0.000006 1.719720 1.674740 -33.811600 -11.754300 -0.000006 -0.000006 -0.026925 -0.203006 -24.882800
0.000000 0.000000 0.000000 0.000000 0.000000 -0.000000 -1.240440 86.604700 -453.265000 90.484000 -2.562590 -10.315200 15.735700 0.000005 -0.000001 98.660000 81.776200 -101.025000 8.984550 -0.406207 -0.000000 8.555020 2.448340 -4.908900 16.377300 -0.000001 -0.000001 -2.645260 -2.734090 0.555046 6.456720 -0.000001 -0.000000 -6.514440 -7.734700 4.388530 12.994200 -0.242716 4.980390 -87.906600 -5.355720 -68.613600 5.348090 -0.000007 -0.000001 -74.319000 26.198500 13.146600 24.328600 0.000019 0.000005 -1.763690 -0.101022 -86.715900 22.291600 -0.000001 0.000005 1.395980 5.584520 -10.451800 12.994500 -0.242716 -4.980390 89.739400 0.882469 -73.553500 -5.348130 -0.000001 -0.000004 -59.450700 39.196300 -25.103400 -24.328900 0.000322 -0.000009 -5.749000 -0.295630 -87.053200 -22.291500 -0.000108 -0.000004 14.028100 5.485840 -5.972980 -2.192480 -6.469440 -0.000000 173.130000 -3.190680 -35.366700 39.081100 -0.000007 -0.000012 -0.488074 0.438094 48.090100 40.985400 -0.000006 -0.000013 3.274820 -9.506990 -73.853700 11.754300 -0.000000 0.000003 -0.001003 -0.015449 -17.205100 -2.192510 6.469440 -0.000001 178.240000 3.138540 174.497000 -39.081100 -0.002282 -0.040193 -0.093212 0.043433 65.739400 -40.985400 0.000008 0.000006 2.175210 0.030086 -37.818300 -11.754300 -0.000006 -0.000006 -0.027758 -0.206998 -25.048100
0.000000 0.000000 0.000000 0.000000 0.000000 -0.000000 -0.758560 84.153500 -447.038000 92.778200 -0.946300 -7.811140 15.735700 0.000005 -0.000001 91.230800 81.010400 -94.215100 8.984550 -0.406207 -0.000000 10.224500 0.319541 -5.993280 16.377300 -0.000001 -0.000001 -3.488890 -3.469910 1.353580 6.456720 -0.000001 -0.000000 -6.187520 -6.044530 4.398210 12.994200 -0.242716 4.980390 -89.735400 -0.719694 -69.827300 5.348090 -0.000007 -0.000001 -70.160600 21.922900 4.135660 24.328600 0.000019 0.000005 -2.075550 -0.001173 -89.969400 22.291600 -0.000001 0.000005 -0.370631 5.561910 -9.280590 12.994500 -0.242716 -4.980390 88.820000 3.762630 -72.575300 -5.348130 -0.000001 -0.000004 -60.634300 38.985900 -17.273300 -24.328900 0.000322 -0.000009 0.441570 0.125745 -74.503400 -22.291500 -0.000108 -0.000004 11.183900 5.544100 -8.435420 -2.192480 -6.469440 -0.000000 170.738000 0.949809 -31.070800 39.081100 -0.000007 -0.000012 -0.551932 0.394427 54.450600 40.985400 -0.000006 -0.000013 2.899140 -12.884200 -81.589600 11.754300 -0.000000 0.000003 -0.281413 -0.340908 -16.362000 -2.192510 6.469440 -0.000001 176.296000 3.387990 167.262000 -39.081100 -0.002282 -0.040193 -0.228473 0.029560 82.712700 -40.985400 0.000008 0.000006 4.912330 0.315006 -39.639700 -11.754300 -0.000006 -0.000006 -0.026467 -0.200791 -24.791100
